<?xml version="1.0" encoding="UTF-8" standalone="no"?>
<!--
  - Licensed to the Apache Software Foundation (ASF) under one
  - or more contributor license agreements.  See the NOTICE file
  - distributed with this work for additional information
  - regarding copyright ownership.  The ASF licenses this file
  - to you under the Apache License, Version 2.0 (the
  - "License"); you may not use this file except in compliance
  - with the License.  You may obtain a copy of the License at
  -
  -     http://www.apache.org/licenses/LICENSE-2.0
  -
  - Unless required by applicable law or agreed to in writing, software
  - distributed under the License is distributed on an "AS IS" BASIS,
  - WITHOUT WARRANTIES OR CONDITIONS OF ANY KIND, either express or implied.
  - See the License for the specific language governing permissions and
  - limitations under the License.
  -->

<!DOCTYPE svg PUBLIC "-//W3C//DTD SVG 1.1//EN"
        "http://www.w3.org/Graphics/SVG/1.1/DTD/svg11.dtd">
<!-- Generated by graphviz version 2.40.1 (20161225.0304)
# embedded DOT (plantuml) works in IDEA preview
# but not on GitHub
```plantuml
digraph G {
    start [label="start/end"]

    tractor [label = "contentArray[0]"]
    tracto [label = "0x01B"]
    tract [label = "0x01A"]
    trac [label = "0x019"]
    tra [label = "Multi\n0x018"; color = "lightgrey"; fontcolor = lightgray]

    tree [label = "contentArray[1]"]
    tre [label = "Multi\n0x03B"]
    trie [label = "contentArray[2]"]
    tri [label = "Multi\n0x05B"]

    tr [label = "Sparse\n0x07E"; color = "lightgrey"; fontcolor = lightgray]

    t [label = "0x09B"; color = "lightgrey"; fontcolor = lightgray]
    root [label = "Multi\n0x9A"; color = "lightgrey"; fontcolor = lightgray]

    root -> t [label = " t"; color = "lightgrey"; fontcolor = lightgray]
    t -> tr [label = " r"; color = "lightgrey"; fontcolor = lightgray]
    trac -> tract [label = " t"]
    tract -> tracto [label = " o"]
    tracto -> tractor [label = " r"]

    tr -> tra [label = " a"; color = "lightgrey"; fontcolor = lightgray]
    tra -> trac [label = " c"; color = "lightgrey"; fontcolor = lightgray]

    tr -> tre [label = " e"; color = "lightgrey"; fontcolor = lightgray]
    tre -> tree [label = " e"]

    tr -> tri [label = " i"; color = "lightgrey"; fontcolor = lightgray]
    tri -> trie [label = " e"]

    subgraph path {
        edge [color = "lightblue"; fontcolor="blue"; arrowhead="vee"]
        node [color = "blue"; fontcolor="blue"]

        start -> root

        root -> t [label = " t"]
        t -> tr [label = " r"]
        tr -> tra [label = " a"]
        tra -> trav [label = " v"]
        trav -> trave [label = " e"]
        trave -> traver [label = " r"]
        traver -> travers [label = " s"]
        travers -> traverse [label = " e"]

        tra2 [label = "Sparse\n0x0DE"]
        trav [label = "Multi\n0x0B8"]
        trave [label = "0x0B9"]
        traver [label = "0x0BA"]
        travers [label = "0x0BB"]
        traverse [label = "contentArray[3]"]

        tr -> tru [label = " u"]
        tru -> truc [label = " c"]
        truc -> truck [label = " k"]

        root2 [label = "Multi\n0x13A"]
        t2 [label = "0x13B"]
        tr2 [label = "Sparse\n0x0FE"]
        tru [label = "Multi\n0x11A"]
        truc [label = "0x11B"]
        truck [label = "contentArray[4]"]
    }

    {rank=same root -> root2 [style=invis]}
    {rank=same t -> t2 [style=invis]}
    {rank=same tr -> tr2 [style=invis]}
    {rank=same tra -> tra2 -> tre -> tri -> tru [style=invis]}
    {rank=same trac -> trav -> tree -> trie -> truc [style=invis]}

    {
        edge [color = "blue"]
        root2 -> t2 [label = " t"]
        t2 -> tr2 [label = " r"]
        tr2 -> tre [label = " e"]
        tr2 -> tri [label = " i"]

        tr2 -> tra2 [label = " a"]
        tra2 -> trac [label = " c"]
        tra2 -> trav [label = " v"]
        trav -> trave [label = " e"]
        trave -> traver [label = " r"]
        traver -> travers [label = " s"]
        travers -> traverse [label = " e"]
        tr2 -> tru [label = " u"]
        tru -> truc [label = " c"]
        truc -> truck [label = " k"]
    }

    subgraph back {
        edge [color = "pink"; fontcolor="red"; arrowhead="vee"; constrain="false"]

        traverse -> travers [label = " ~3"]
        travers -> traver [label = "0x0BB"]
        traver -> trave [label = "0x0BA"]
        trave -> trav [label = "0x0B9"]
        trav -> tra2 [label = "0x0B8"]
        tra2 -> tr2 [label = "0x0DE"]
        tr2 -> t2 [label = "0x0FE"]
        t2 -> root2 [label = "0x13B"]
        root2 -> start [label = "0x13A"]

        truck -> truc [label = "~4"]
        truc -> tru [label = "0x11B"]
        tru -> tr2 [label = "0x11A"]
    }
}
```
 -->
<!-- Title: G Pages: 1 -->
<svg width="757pt" height="935pt"
     viewBox="0.00 0.00 757.47 934.53" xmlns="http://www.w3.org/2000/svg" xmlns:xlink="http://www.w3.org/1999/xlink">
    <g id="graph0" class="graph" transform="scale(1 1) rotate(0) translate(4 930.5251)">
        <title>G</title>
        <polygon fill="#ffffff" stroke="transparent" points="-4,4 -4,-930.5251 753.4738,-930.5251 753.4738,4 -4,4"/>
        <!-- start -->
        <g id="node1" class="node">
            <title>start</title>
            <ellipse fill="none" stroke="#000000" cx="318.2369" cy="-908.5251" rx="44.0775" ry="18"/>
            <text text-anchor="middle" x="318.2369" y="-904.3251" font-family="Times,serif" font-size="14.00" fill="#000000">start/end</text>
        </g>
        <!-- root -->
        <g id="node13" class="node">
            <title>root</title>
            <ellipse fill="none" stroke="#d3d3d3" cx="265.2369" cy="-808.3095" rx="33.1337" ry="29.3315"/>
            <text text-anchor="middle" x="265.2369" y="-812.5095" font-family="Times,serif" font-size="14.00" fill="#d3d3d3">Multi</text>
            <text text-anchor="middle" x="265.2369" y="-795.7095" font-family="Times,serif" font-size="14.00" fill="#d3d3d3">0x9A</text>
        </g>
        <!-- start&#45;&gt;root -->
        <g id="edge12" class="edge">
            <title>start&#45;&gt;root</title>
            <path fill="none" stroke="#add8e6" d="M308.7616,-890.6086C301.9417,-877.7133 292.5132,-859.8852 284.1748,-844.1185"/>
            <polygon fill="#add8e6" stroke="#add8e6" points="279.4192,-835.1263 288.0723,-841.8625 281.7568,-839.5463 284.0944,-843.9663 284.0944,-843.9663 284.0944,-843.9663 281.7568,-839.5463 280.1164,-846.0701 279.4192,-835.1263 279.4192,-835.1263"/>
        </g>
        <!-- tractor -->
        <g id="node2" class="node">
            <title>tractor</title>
            <ellipse fill="none" stroke="#000000" cx="73.2369" cy="-106.8" rx="73.4745" ry="18"/>
            <text text-anchor="middle" x="73.2369" y="-102.6" font-family="Times,serif" font-size="14.00" fill="#000000">contentArray[0]</text>
        </g>
        <!-- tracto -->
        <g id="node3" class="node">
            <title>tracto</title>
            <ellipse fill="none" stroke="#000000" cx="74.2369" cy="-195.6" rx="36.5824" ry="18"/>
            <text text-anchor="middle" x="74.2369" y="-191.4" font-family="Times,serif" font-size="14.00" fill="#000000">0x01B</text>
        </g>
        <!-- tracto&#45;&gt;tractor -->
        <g id="edge5" class="edge">
            <title>tracto&#45;&gt;tractor</title>
            <path fill="none" stroke="#000000" d="M74.0297,-177.2006C73.8934,-165.0949 73.7122,-149.0076 73.5575,-135.2674"/>
            <polygon fill="#000000" stroke="#000000" points="77.0529,-134.8319 73.4404,-124.872 70.0533,-134.9108 77.0529,-134.8319"/>
            <text text-anchor="middle" x="78.3172" y="-147" font-family="Times,serif" font-size="14.00" fill="#000000"> r</text>
        </g>
        <!-- tract -->
        <g id="node4" class="node">
            <title>tract</title>
            <ellipse fill="none" stroke="#000000" cx="78.2369" cy="-284.4" rx="37.1443" ry="18"/>
            <text text-anchor="middle" x="78.2369" y="-280.2" font-family="Times,serif" font-size="14.00" fill="#000000">0x01A</text>
        </g>
        <!-- tract&#45;&gt;tracto -->
        <g id="edge4" class="edge">
            <title>tract&#45;&gt;tracto</title>
            <path fill="none" stroke="#000000" d="M77.4081,-266.0006C76.8628,-253.8949 76.1381,-237.8076 75.5192,-224.0674"/>
            <polygon fill="#000000" stroke="#000000" points="78.9975,-223.5044 75.0509,-213.672 72.0046,-223.8194 78.9975,-223.5044"/>
            <text text-anchor="middle" x="82.4869" y="-235.8" font-family="Times,serif" font-size="14.00" fill="#000000"> o</text>
        </g>
        <!-- trac -->
        <g id="node5" class="node">
            <title>trac</title>
            <ellipse fill="none" stroke="#000000" cx="94.2369" cy="-384.6156" rx="35.3587" ry="18"/>
            <text text-anchor="middle" x="94.2369" y="-380.4156" font-family="Times,serif" font-size="14.00" fill="#000000">0x019</text>
        </g>
        <!-- trac&#45;&gt;tract -->
        <g id="edge3" class="edge">
            <title>trac&#45;&gt;tract</title>
            <path fill="none" stroke="#000000" d="M91.3022,-366.2345C88.9115,-351.2603 85.4955,-329.8643 82.756,-312.7055"/>
            <polygon fill="#000000" stroke="#000000" points="86.1858,-311.9877 81.1529,-302.6646 79.2734,-313.0913 86.1858,-311.9877"/>
            <text text-anchor="middle" x="89.9322" y="-324.6" font-family="Times,serif" font-size="14.00" fill="#000000"> t</text>
        </g>
        <!-- trav -->
        <g id="node14" class="node">
            <title>trav</title>
            <ellipse fill="none" stroke="#0000ff" cx="202.2369" cy="-384.6156" rx="37.9306" ry="29.3315"/>
            <text text-anchor="middle" x="202.2369" y="-388.8156" font-family="Times,serif" font-size="14.00" fill="#0000ff">Multi</text>
            <text text-anchor="middle" x="202.2369" y="-372.0156" font-family="Times,serif" font-size="14.00" fill="#0000ff">0x0B8</text>
        </g>
        <!-- trac&#45;&gt;trav -->
        <!-- tra -->
        <g id="node6" class="node">
            <title>tra</title>
            <ellipse fill="none" stroke="#d3d3d3" cx="133.2369" cy="-496.2469" rx="36.125" ry="29.3315"/>
            <text text-anchor="middle" x="133.2369" y="-500.4469" font-family="Times,serif" font-size="14.00" fill="#d3d3d3">Multi</text>
            <text text-anchor="middle" x="133.2369" y="-483.6469" font-family="Times,serif" font-size="14.00" fill="#d3d3d3">0x018</text>
        </g>
        <!-- tra&#45;&gt;trac -->
        <g id="edge7" class="edge">
            <title>tra&#45;&gt;trac</title>
            <path fill="none" stroke="#d3d3d3" d="M114.5188,-470.6739C110.3016,-463.8622 106.2666,-456.3098 103.5223,-448.8313 99.3758,-437.5318 97.0731,-424.4776 95.7973,-413.1021"/>
            <polygon fill="#d3d3d3" stroke="#d3d3d3" points="99.2538,-412.4638 94.8622,-402.822 92.2826,-413.098 99.2538,-412.4638"/>
            <text text-anchor="middle" x="109.0942" y="-436.2313" font-family="Times,serif" font-size="14.00" fill="#d3d3d3"> c</text>
        </g>
        <!-- tra&#45;&gt;trav -->
        <g id="edge16" class="edge">
            <title>tra&#45;&gt;trav</title>
            <path fill="none" stroke="#add8e6" d="M130.7527,-466.6197C131.0399,-455.1889 132.9734,-442.3975 138.7369,-432.0313 144.2651,-422.0881 152.8469,-413.6214 161.933,-406.7148"/>
            <polygon fill="#add8e6" stroke="#add8e6" points="170.346,-400.8129 164.7439,-410.2398 166.2527,-403.6844 162.1595,-406.5559 162.1595,-406.5559 162.1595,-406.5559 166.2527,-403.6844 159.5751,-402.872 170.346,-400.8129 170.346,-400.8129"/>
            <text text-anchor="middle" x="144.4869" y="-436.2313" font-family="Times,serif" font-size="14.00" fill="#0000ff"> v</text>
        </g>
        <!-- tra2 -->
        <g id="node19" class="node">
            <title>tra2</title>
            <ellipse fill="none" stroke="#0000ff" cx="244.2369" cy="-496.2469" rx="39.2145" ry="29.3315"/>
            <text text-anchor="middle" x="244.2369" y="-500.4469" font-family="Times,serif" font-size="14.00" fill="#0000ff">Sparse</text>
            <text text-anchor="middle" x="244.2369" y="-483.6469" font-family="Times,serif" font-size="14.00" fill="#0000ff">0x0DE</text>
        </g>
        <!-- tra&#45;&gt;tra2 -->
        <!-- tree -->
        <g id="node7" class="node">
            <title>tree</title>
            <ellipse fill="none" stroke="#000000" cx="348.2369" cy="-384.6156" rx="73.4745" ry="18"/>
            <text text-anchor="middle" x="348.2369" y="-380.4156" font-family="Times,serif" font-size="14.00" fill="#000000">contentArray[1]</text>
        </g>
        <!-- trie -->
        <g id="node9" class="node">
            <title>trie</title>
            <ellipse fill="none" stroke="#000000" cx="530.2369" cy="-384.6156" rx="73.4745" ry="18"/>
            <text text-anchor="middle" x="530.2369" y="-380.4156" font-family="Times,serif" font-size="14.00" fill="#000000">contentArray[2]</text>
        </g>
        <!-- tree&#45;&gt;trie -->
        <!-- tre -->
        <g id="node8" class="node">
            <title>tre</title>
            <ellipse fill="none" stroke="#000000" cx="357.2369" cy="-496.2469" rx="37.9306" ry="29.3315"/>
            <text text-anchor="middle" x="357.2369" y="-500.4469" font-family="Times,serif" font-size="14.00" fill="#000000">Multi</text>
            <text text-anchor="middle" x="357.2369" y="-483.6469" font-family="Times,serif" font-size="14.00" fill="#000000">0x03B</text>
        </g>
        <!-- tre&#45;&gt;tree -->
        <g id="edge9" class="edge">
            <title>tre&#45;&gt;tree</title>
            <path fill="none" stroke="#000000" d="M354.8487,-466.6249C353.5073,-449.9873 351.8422,-429.334 350.5186,-412.9163"/>
            <polygon fill="#000000" stroke="#000000" points="353.9973,-412.5103 349.7049,-402.8239 347.0199,-413.0729 353.9973,-412.5103"/>
            <text text-anchor="middle" x="358.0942" y="-436.2313" font-family="Times,serif" font-size="14.00" fill="#000000"> e</text>
        </g>
        <!-- tri -->
        <g id="node10" class="node">
            <title>tri</title>
            <ellipse fill="none" stroke="#000000" cx="469.2369" cy="-496.2469" rx="37.9306" ry="29.3315"/>
            <text text-anchor="middle" x="469.2369" y="-500.4469" font-family="Times,serif" font-size="14.00" fill="#000000">Multi</text>
            <text text-anchor="middle" x="469.2369" y="-483.6469" font-family="Times,serif" font-size="14.00" fill="#000000">0x05B</text>
        </g>
        <!-- tre&#45;&gt;tri -->
        <!-- truc -->
        <g id="node21" class="node">
            <title>truc</title>
            <ellipse fill="none" stroke="#0000ff" cx="676.2369" cy="-384.6156" rx="36.5824" ry="18"/>
            <text text-anchor="middle" x="676.2369" y="-380.4156" font-family="Times,serif" font-size="14.00" fill="#0000ff">0x11B</text>
        </g>
        <!-- trie&#45;&gt;truc -->
        <!-- tri&#45;&gt;trie -->
        <g id="edge11" class="edge">
            <title>tri&#45;&gt;trie</title>
            <path fill="none" stroke="#000000" d="M484.1592,-468.9388C493.6824,-451.511 505.9755,-429.0146 515.4687,-411.6418"/>
            <polygon fill="#000000" stroke="#000000" points="518.6954,-413.0358 520.4193,-402.5821 512.5526,-409.6791 518.6954,-413.0358"/>
            <text text-anchor="middle" x="508.0942" y="-436.2313" font-family="Times,serif" font-size="14.00" fill="#000000"> e</text>
        </g>
        <!-- tru -->
        <g id="node20" class="node">
            <title>tru</title>
            <ellipse fill="none" stroke="#0000ff" cx="580.2369" cy="-496.2469" rx="38.0198" ry="29.3315"/>
            <text text-anchor="middle" x="580.2369" y="-500.4469" font-family="Times,serif" font-size="14.00" fill="#0000ff">Multi</text>
            <text text-anchor="middle" x="580.2369" y="-483.6469" font-family="Times,serif" font-size="14.00" fill="#0000ff">0x11A</text>
        </g>
        <!-- tri&#45;&gt;tru -->
        <!-- tr -->
        <g id="node11" class="node">
            <title>tr</title>
            <ellipse fill="none" stroke="#d3d3d3" cx="285.2369" cy="-607.8782" rx="37.9027" ry="29.3315"/>
            <text text-anchor="middle" x="285.2369" y="-612.0782" font-family="Times,serif" font-size="14.00" fill="#d3d3d3">Sparse</text>
            <text text-anchor="middle" x="285.2369" y="-595.2782" font-family="Times,serif" font-size="14.00" fill="#d3d3d3">0x07E</text>
        </g>
        <!-- tr&#45;&gt;tra -->
        <g id="edge6" class="edge">
            <title>tr&#45;&gt;tra</title>
            <path fill="none" stroke="#d3d3d3" d="M248.8847,-599.957C223.9257,-593.0009 191.3164,-580.7434 168.5223,-560.4626 160.3121,-553.1576 153.6248,-543.47 148.3676,-533.8397"/>
            <polygon fill="#d3d3d3" stroke="#d3d3d3" points="151.389,-532.058 143.7623,-524.7038 145.1383,-535.2089 151.389,-532.058"/>
            <text text-anchor="middle" x="174.0942" y="-547.8626" font-family="Times,serif" font-size="14.00" fill="#d3d3d3"> a</text>
        </g>
        <!-- tr&#45;&gt;tra -->
        <g id="edge15" class="edge">
            <title>tr&#45;&gt;tra</title>
            <path fill="none" stroke="#add8e6" d="M255.4057,-589.4049C242.0712,-580.8992 226.2901,-570.4861 212.5223,-560.4626 196.9603,-549.1328 180.3233,-535.8503 166.3281,-524.3146"/>
            <polygon fill="#add8e6" stroke="#add8e6" points="158.4213,-517.7524 168.9903,-520.6762 162.2688,-520.9457 166.1164,-524.1389 166.1164,-524.1389 166.1164,-524.1389 162.2688,-520.9457 163.2424,-527.6017 158.4213,-517.7524 158.4213,-517.7524"/>
            <text text-anchor="middle" x="218.0942" y="-547.8626" font-family="Times,serif" font-size="14.00" fill="#0000ff"> a</text>
        </g>
        <!-- tr&#45;&gt;tre -->
        <g id="edge8" class="edge">
            <title>tr&#45;&gt;tre</title>
            <path fill="none" stroke="#d3d3d3" d="M275.192,-579.1963C272.8368,-567.5207 272.5117,-554.3001 278.5223,-543.6626 286.3122,-529.876 299.8947,-519.6522 313.6068,-512.301"/>
            <polygon fill="#d3d3d3" stroke="#d3d3d3" points="315.1568,-515.4391 322.5768,-507.8764 312.0602,-509.1613 315.1568,-515.4391"/>
            <text text-anchor="middle" x="284.0942" y="-547.8626" font-family="Times,serif" font-size="14.00" fill="#d3d3d3"> e</text>
        </g>
        <!-- tr&#45;&gt;tri -->
        <g id="edge10" class="edge">
            <title>tr&#45;&gt;tri</title>
            <path fill="none" stroke="#d3d3d3" d="M312.9664,-587.9168C337.1705,-570.5446 369.409,-547.5491 375.8463,-543.6626 392.2423,-533.7635 410.9556,-523.9835 427.304,-515.9004"/>
            <polygon fill="#d3d3d3" stroke="#d3d3d3" points="429.1719,-518.8833 436.6209,-511.3492 426.0994,-512.5936 429.1719,-518.8833"/>
            <text text-anchor="middle" x="378.9322" y="-547.8626" font-family="Times,serif" font-size="14.00" fill="#d3d3d3"> i</text>
        </g>
        <!-- tr&#45;&gt;tru -->
        <g id="edge21" class="edge">
            <title>tr&#45;&gt;tru</title>
            <path fill="none" stroke="#add8e6" d="M318.7909,-593.8777C330.6131,-588.971 344.003,-583.4434 356.2369,-578.4626 376.1874,-570.34 381.5406,-569.1837 401.2369,-560.4626 416.8313,-553.5577 419.6391,-549.2949 435.7369,-543.6626 470.3412,-531.5551 481.4995,-537.3829 516.2369,-525.6626 523.7321,-523.1337 531.5258,-520.0047 538.9887,-516.7402"/>
            <polygon fill="#add8e6" stroke="#add8e6" points="548.2173,-512.5679 540.9591,-520.788 543.6613,-514.6277 539.1053,-516.6876 539.1053,-516.6876 539.1053,-516.6876 543.6613,-514.6277 537.2514,-512.5872 548.2173,-512.5679 548.2173,-512.5679"/>
            <text text-anchor="middle" x="440.4869" y="-547.8626" font-family="Times,serif" font-size="14.00" fill="#0000ff"> u</text>
        </g>
        <!-- tr2 -->
        <g id="node25" class="node">
            <title>tr2</title>
            <ellipse fill="none" stroke="#0000ff" cx="403.2369" cy="-607.8782" rx="37.9286" ry="29.3315"/>
            <text text-anchor="middle" x="403.2369" y="-612.0782" font-family="Times,serif" font-size="14.00" fill="#0000ff">Sparse</text>
            <text text-anchor="middle" x="403.2369" y="-595.2782" font-family="Times,serif" font-size="14.00" fill="#0000ff">0x0FE</text>
        </g>
        <!-- tr&#45;&gt;tr2 -->
        <!-- t -->
        <g id="node12" class="node">
            <title>t</title>
            <ellipse fill="none" stroke="#d3d3d3" cx="271.2369" cy="-708.0939" rx="36.5824" ry="18"/>
            <text text-anchor="middle" x="271.2369" y="-703.8939" font-family="Times,serif" font-size="14.00" fill="#d3d3d3">0x09B</text>
        </g>
        <!-- t&#45;&gt;tr -->
        <g id="edge2" class="edge">
            <title>t&#45;&gt;tr</title>
            <path fill="none" stroke="#d3d3d3" d="M270.39,-689.92C270.1973,-679.6962 270.4264,-666.7269 272.0763,-655.2939 272.4938,-652.4005 273.0349,-649.4334 273.659,-646.4641"/>
            <polygon fill="#d3d3d3" stroke="#d3d3d3" points="277.1286,-647.0025 276.0419,-636.4636 270.3192,-645.3799 277.1286,-647.0025"/>
            <text text-anchor="middle" x="276.3172" y="-659.4939" font-family="Times,serif" font-size="14.00" fill="#d3d3d3"> r</text>
        </g>
        <!-- t&#45;&gt;tr -->
        <g id="edge14" class="edge">
            <title>t&#45;&gt;tr</title>
            <path fill="none" stroke="#add8e6" d="M275.7537,-689.8645C277.0318,-684.1986 278.3222,-677.9127 279.2369,-672.0939 280.4839,-664.1608 281.5031,-655.6328 282.3243,-647.4657"/>
            <polygon fill="#add8e6" stroke="#add8e6" points="283.2608,-637.3857 286.8163,-647.7591 282.7982,-642.3642 282.3356,-647.3428 282.3356,-647.3428 282.3356,-647.3428 282.7982,-642.3642 277.8549,-646.9265 283.2608,-637.3857 283.2608,-637.3857"/>
            <text text-anchor="middle" x="286.3172" y="-659.4939" font-family="Times,serif" font-size="14.00" fill="#0000ff"> r</text>
        </g>
        <!-- t2 -->
        <g id="node24" class="node">
            <title>t2</title>
            <ellipse fill="none" stroke="#0000ff" cx="380.2369" cy="-708.0939" rx="36.5824" ry="18"/>
            <text text-anchor="middle" x="380.2369" y="-703.8939" font-family="Times,serif" font-size="14.00" fill="#0000ff">0x13B</text>
        </g>
        <!-- t&#45;&gt;t2 -->
        <!-- root&#45;&gt;t -->
        <g id="edge1" class="edge">
            <title>root&#45;&gt;t</title>
            <path fill="none" stroke="#d3d3d3" d="M259.8774,-779.1183C258.6167,-768.1018 258.0876,-755.4822 259.8463,-744.0939 260.2634,-741.3931 260.8467,-738.6173 261.531,-735.8625"/>
            <polygon fill="#d3d3d3" stroke="#d3d3d3" points="264.9241,-736.7275 264.3355,-726.149 258.1988,-734.7857 264.9241,-736.7275"/>
            <text text-anchor="middle" x="263.9322" y="-748.2939" font-family="Times,serif" font-size="14.00" fill="#d3d3d3"> t</text>
        </g>
        <!-- root&#45;&gt;t -->
        <g id="edge13" class="edge">
            <title>root&#45;&gt;t</title>
            <path fill="none" stroke="#add8e6" d="M267.0046,-778.7835C267.812,-765.2984 268.7635,-749.4062 269.5596,-736.1092"/>
            <polygon fill="#add8e6" stroke="#add8e6" points="270.159,-726.0972 274.0532,-736.3483 269.8601,-731.0882 269.5613,-736.0793 269.5613,-736.0793 269.5613,-736.0793 269.8601,-731.0882 265.0693,-735.8103 270.159,-726.0972 270.159,-726.0972"/>
            <text text-anchor="middle" x="272.9322" y="-748.2939" font-family="Times,serif" font-size="14.00" fill="#0000ff"> t</text>
        </g>
        <!-- root2 -->
        <g id="node23" class="node">
            <title>root2</title>
            <ellipse fill="none" stroke="#0000ff" cx="372.2369" cy="-808.3095" rx="38.0198" ry="29.3315"/>
            <text text-anchor="middle" x="372.2369" y="-812.5095" font-family="Times,serif" font-size="14.00" fill="#0000ff">Multi</text>
            <text text-anchor="middle" x="372.2369" y="-795.7095" font-family="Times,serif" font-size="14.00" fill="#0000ff">0x13A</text>
        </g>
        <!-- root&#45;&gt;root2 -->
        <!-- trav&#45;&gt;tree -->
        <!-- trave -->
        <g id="node15" class="node">
            <title>trave</title>
            <ellipse fill="none" stroke="#0000ff" cx="202.2369" cy="-284.4" rx="36.5824" ry="18"/>
            <text text-anchor="middle" x="202.2369" y="-280.2" font-family="Times,serif" font-size="14.00" fill="#0000ff">0x0B9</text>
        </g>
        <!-- trav&#45;&gt;trave -->
        <g id="edge17" class="edge">
            <title>trav&#45;&gt;trave</title>
            <path fill="none" stroke="#add8e6" d="M181.4692,-359.4476C176.9833,-352.6281 172.8815,-344.9707 170.5223,-337.2 168.3531,-330.0554 167.8843,-327.3851 170.5223,-320.4 172.1555,-316.0753 174.5712,-311.9338 177.3533,-308.0992"/>
            <polygon fill="#add8e6" stroke="#add8e6" points="183.8676,-300.2431 180.9485,-310.8134 180.6761,-304.0921 177.4845,-307.941 177.4845,-307.941 177.4845,-307.941 180.6761,-304.0921 174.0205,-305.0686 183.8676,-300.2431 183.8676,-300.2431"/>
            <text text-anchor="middle" x="176.0942" y="-324.6" font-family="Times,serif" font-size="14.00" fill="#0000ff"> e</text>
        </g>
        <!-- trav&#45;&gt;trave -->
        <g id="edge42" class="edge">
            <title>trav&#45;&gt;trave</title>
            <path fill="none" stroke="#0000ff" d="M202.2369,-355.0897C202.2369,-341.6046 202.2369,-325.7123 202.2369,-312.4153"/>
            <polygon fill="#0000ff" stroke="#0000ff" points="205.737,-312.4033 202.2369,-302.4033 198.737,-312.4034 205.737,-312.4033"/>
            <text text-anchor="middle" x="207.0942" y="-324.6" font-family="Times,serif" font-size="14.00" fill="#000000"> e</text>
        </g>
        <!-- trav&#45;&gt;tra2 -->
        <g id="edge53" class="edge">
            <title>trav&#45;&gt;tra2</title>
            <path fill="none" stroke="#ffc0cb" d="M213.0163,-412.9388C215.4002,-419.2228 217.909,-425.8514 220.2369,-432.0313 223.4375,-440.5282 226.8619,-449.6636 230.0924,-458.3025"/>
            <polygon fill="#ffc0cb" stroke="#ffc0cb" points="233.6352,-467.7845 225.9197,-459.992 231.8851,-463.1007 230.1351,-458.417 230.1351,-458.417 230.1351,-458.417 231.8851,-463.1007 234.3505,-456.8419 233.6352,-467.7845 233.6352,-467.7845"/>
            <text text-anchor="middle" x="244.9052" y="-436.2313" font-family="Times,serif" font-size="14.00" fill="#ff0000">0x0B8</text>
        </g>
        <!-- trave&#45;&gt;trav -->
        <g id="edge52" class="edge">
            <title>trave&#45;&gt;trav</title>
            <path fill="none" stroke="#ffc0cb" d="M208.9024,-302.4722C210.6782,-308.1317 212.3487,-314.4535 213.2369,-320.4 214.4724,-328.6713 214.0766,-337.5213 212.8888,-345.926"/>
            <polygon fill="#ffc0cb" stroke="#ffc0cb" points="211.1036,-355.888 208.4382,-345.2509 211.9856,-350.9664 212.8676,-346.0448 212.8676,-346.0448 212.8676,-346.0448 211.9856,-350.9664 217.297,-346.8386 211.1036,-355.888 211.1036,-355.888"/>
            <text text-anchor="middle" x="232.9052" y="-324.6" font-family="Times,serif" font-size="14.00" fill="#ff0000">0x0B9</text>
        </g>
        <!-- traver -->
        <g id="node16" class="node">
            <title>traver</title>
            <ellipse fill="none" stroke="#0000ff" cx="202.2369" cy="-195.6" rx="38.8671" ry="18"/>
            <text text-anchor="middle" x="202.2369" y="-191.4" font-family="Times,serif" font-size="14.00" fill="#0000ff">0x0BA</text>
        </g>
        <!-- trave&#45;&gt;traver -->
        <g id="edge18" class="edge">
            <title>trave&#45;&gt;traver</title>
            <path fill="none" stroke="#add8e6" d="M185.324,-268.32C180.3995,-262.5605 175.6543,-255.6784 173.0763,-248.4 170.5834,-241.3618 170.5834,-238.6382 173.0763,-231.6 174.4962,-227.5912 176.5735,-223.7026 178.9762,-220.0556"/>
            <polygon fill="#add8e6" stroke="#add8e6" points="185.0164,-212.0415 182.5911,-222.7358 182.007,-216.0344 178.9975,-220.0273 178.9975,-220.0273 178.9975,-220.0273 182.007,-216.0344 175.4039,-217.3188 185.0164,-212.0415 185.0164,-212.0415"/>
            <text text-anchor="middle" x="177.3172" y="-235.8" font-family="Times,serif" font-size="14.00" fill="#0000ff"> r</text>
        </g>
        <!-- trave&#45;&gt;traver -->
        <g id="edge43" class="edge">
            <title>trave&#45;&gt;traver</title>
            <path fill="none" stroke="#0000ff" d="M202.2369,-266.0006C202.2369,-253.8949 202.2369,-237.8076 202.2369,-224.0674"/>
            <polygon fill="#0000ff" stroke="#0000ff" points="205.737,-223.672 202.2369,-213.672 198.737,-223.6721 205.737,-223.672"/>
            <text text-anchor="middle" x="206.3172" y="-235.8" font-family="Times,serif" font-size="14.00" fill="#000000"> r</text>
        </g>
        <!-- traver&#45;&gt;trave -->
        <g id="edge51" class="edge">
            <title>traver&#45;&gt;trave</title>
            <path fill="none" stroke="#ffc0cb" d="M207.6937,-213.7509C209.1467,-219.4136 210.5127,-225.7174 211.2369,-231.6 212.1492,-239.0107 212.1492,-240.9893 211.2369,-248.4 210.9201,-250.9736 210.4804,-253.6279 209.9643,-256.2738"/>
            <polygon fill="#ffc0cb" stroke="#ffc0cb" points="207.6937,-266.2491 205.5255,-255.4997 208.8035,-261.3738 209.9132,-256.4985 209.9132,-256.4985 209.9132,-256.4985 208.8035,-261.3738 214.301,-257.4973 207.6937,-266.2491 207.6937,-266.2491"/>
            <text text-anchor="middle" x="232.4585" y="-235.8" font-family="Times,serif" font-size="14.00" fill="#ff0000">0x0BA</text>
        </g>
        <!-- travers -->
        <g id="node17" class="node">
            <title>travers</title>
            <ellipse fill="none" stroke="#0000ff" cx="203.2369" cy="-106.8" rx="38.305" ry="18"/>
            <text text-anchor="middle" x="203.2369" y="-102.6" font-family="Times,serif" font-size="14.00" fill="#0000ff">0x0BB</text>
        </g>
        <!-- traver&#45;&gt;travers -->
        <g id="edge19" class="edge">
            <title>traver&#45;&gt;travers</title>
            <path fill="none" stroke="#add8e6" d="M183.9854,-179.6658C174.6965,-169.5397 166.3137,-155.9116 171.2923,-142.8 172.9385,-138.4645 175.3723,-134.3169 178.1749,-130.4793"/>
            <polygon fill="#add8e6" stroke="#add8e6" points="184.7367,-122.6213 181.7812,-133.1814 181.5319,-126.4592 178.3271,-130.2971 178.3271,-130.2971 178.3271,-130.2971 181.5319,-126.4592 174.873,-127.4128 184.7367,-122.6213 184.7367,-122.6213"/>
            <text text-anchor="middle" x="176.7092" y="-147" font-family="Times,serif" font-size="14.00" fill="#0000ff"> s</text>
        </g>
        <!-- traver&#45;&gt;travers -->
        <g id="edge44" class="edge">
            <title>traver&#45;&gt;travers</title>
            <path fill="none" stroke="#0000ff" d="M202.4441,-177.2006C202.5804,-165.0949 202.7616,-149.0076 202.9163,-135.2674"/>
            <polygon fill="#0000ff" stroke="#0000ff" points="206.4205,-134.9108 203.0334,-124.872 199.4209,-134.8319 206.4205,-134.9108"/>
            <text text-anchor="middle" x="207.7092" y="-147" font-family="Times,serif" font-size="14.00" fill="#000000"> s</text>
        </g>
        <!-- travers&#45;&gt;traver -->
        <g id="edge50" class="edge">
            <title>travers&#45;&gt;traver</title>
            <path fill="none" stroke="#ffc0cb" d="M209.0666,-124.8376C211.6638,-135.0186 213.8193,-147.9908 212.2369,-159.6 211.8717,-162.2793 211.3602,-165.0407 210.7599,-167.7863"/>
            <polygon fill="#ffc0cb" stroke="#ffc0cb" points="208.2983,-177.4866 206.3963,-166.6869 209.5282,-172.6402 210.758,-167.7938 210.758,-167.7938 210.758,-167.7938 209.5282,-172.6402 215.1198,-168.9007 208.2983,-177.4866 208.2983,-177.4866"/>
            <text text-anchor="middle" x="233.0735" y="-147" font-family="Times,serif" font-size="14.00" fill="#ff0000">0x0BB</text>
        </g>
        <!-- traverse -->
        <g id="node18" class="node">
            <title>traverse</title>
            <ellipse fill="none" stroke="#0000ff" cx="203.2369" cy="-18" rx="73.4745" ry="18"/>
            <text text-anchor="middle" x="203.2369" y="-13.8" font-family="Times,serif" font-size="14.00" fill="#0000ff">contentArray[3]</text>
        </g>
        <!-- travers&#45;&gt;traverse -->
        <g id="edge20" class="edge">
            <title>travers&#45;&gt;traverse</title>
            <path fill="none" stroke="#add8e6" d="M184.8676,-90.9569C179.5135,-85.2132 174.3474,-78.2805 171.5223,-70.8 168.8843,-63.8149 168.8843,-60.9851 171.5223,-54 172.8668,-50.4399 174.7415,-47.004 176.9144,-43.7612"/>
            <polygon fill="#add8e6" stroke="#add8e6" points="183.203,-35.676 180.6155,-46.3323 180.1332,-39.6227 177.0634,-43.5695 177.0634,-43.5695 177.0634,-43.5695 180.1332,-39.6227 173.5114,-40.8067 183.203,-35.676 183.203,-35.676"/>
            <text text-anchor="middle" x="177.0942" y="-58.2" font-family="Times,serif" font-size="14.00" fill="#0000ff"> e</text>
        </g>
        <!-- travers&#45;&gt;traverse -->
        <g id="edge45" class="edge">
            <title>travers&#45;&gt;traverse</title>
            <path fill="none" stroke="#0000ff" d="M203.2369,-88.4006C203.2369,-76.2949 203.2369,-60.2076 203.2369,-46.4674"/>
            <polygon fill="#0000ff" stroke="#0000ff" points="206.737,-46.072 203.2369,-36.072 199.737,-46.0721 206.737,-46.072"/>
            <text text-anchor="middle" x="208.0942" y="-58.2" font-family="Times,serif" font-size="14.00" fill="#000000"> e</text>
        </g>
        <!-- traverse&#45;&gt;travers -->
        <g id="edge49" class="edge">
            <title>traverse&#45;&gt;travers</title>
            <path fill="none" stroke="#ffc0cb" d="M209.9024,-36.0722C211.6782,-41.7317 213.3487,-48.0535 214.2369,-54 215.3399,-61.3847 215.3399,-63.4153 214.2369,-70.8 213.8344,-73.4945 213.2713,-76.2661 212.6106,-79.0181"/>
            <polygon fill="#ffc0cb" stroke="#ffc0cb" points="209.9024,-88.7278 208.2546,-77.8864 211.2458,-83.9116 212.5891,-79.0954 212.5891,-79.0954 212.5891,-79.0954 211.2458,-83.9116 216.9237,-80.3044 209.9024,-88.7278 209.9024,-88.7278"/>
            <text text-anchor="middle" x="224.2732" y="-58.2" font-family="Times,serif" font-size="14.00" fill="#ff0000"> ~3</text>
        </g>
        <!-- tra2&#45;&gt;trac -->
        <g id="edge40" class="edge">
            <title>tra2&#45;&gt;trac</title>
            <path fill="none" stroke="#0000ff" d="M216.023,-475.2499C189.2207,-455.3034 149.1456,-425.4792 122.3699,-405.5525"/>
            <polygon fill="#0000ff" stroke="#0000ff" points="124.2894,-402.6181 114.1775,-399.4556 120.1102,-408.2337 124.2894,-402.6181"/>
            <text text-anchor="middle" x="183.0942" y="-436.2313" font-family="Times,serif" font-size="14.00" fill="#000000"> c</text>
        </g>
        <!-- tra2&#45;&gt;tre -->
        <!-- tra2&#45;&gt;trav -->
        <g id="edge41" class="edge">
            <title>tra2&#45;&gt;trav</title>
            <path fill="none" stroke="#0000ff" d="M222.659,-471.5823C217.635,-464.6387 212.8503,-456.7959 209.7369,-448.8313 206.7154,-441.1019 204.8136,-432.4806 203.6368,-424.1275"/>
            <polygon fill="#0000ff" stroke="#0000ff" points="207.1115,-423.7045 202.5344,-414.1494 200.1538,-424.4733 207.1115,-423.7045"/>
            <text text-anchor="middle" x="215.4869" y="-436.2313" font-family="Times,serif" font-size="14.00" fill="#000000"> v</text>
        </g>
        <!-- tra2&#45;&gt;tr2 -->
        <g id="edge54" class="edge">
            <title>tra2&#45;&gt;tr2</title>
            <path fill="none" stroke="#ffc0cb" d="M266.4769,-520.5821C278.9596,-533.4015 295.2687,-548.8312 311.5777,-560.4626 326.8195,-571.3328 344.8896,-581.2289 360.9398,-589.135"/>
            <polygon fill="#ffc0cb" stroke="#ffc0cb" points="370.1198,-593.5523 359.1575,-593.2712 365.6143,-591.3843 361.1088,-589.2162 361.1088,-589.2162 361.1088,-589.2162 365.6143,-591.3843 363.06,-585.1613 370.1198,-593.5523 370.1198,-593.5523"/>
            <text text-anchor="middle" x="331.0665" y="-547.8626" font-family="Times,serif" font-size="14.00" fill="#ff0000">0x0DE</text>
        </g>
        <!-- tru&#45;&gt;truc -->
        <g id="edge22" class="edge">
            <title>tru&#45;&gt;truc</title>
            <path fill="none" stroke="#add8e6" d="M584.906,-467.0117C587.8872,-455.247 592.7225,-442.1094 600.5223,-432.0313 610.5674,-419.0519 625.2451,-408.7011 639.0092,-401.0235"/>
            <polygon fill="#add8e6" stroke="#add8e6" points="647.8644,-396.3635 641.1106,-405.0028 643.4397,-398.692 639.0149,-401.0205 639.0149,-401.0205 639.0149,-401.0205 643.4397,-398.692 636.9193,-397.0383 647.8644,-396.3635 647.8644,-396.3635"/>
            <text text-anchor="middle" x="605.0942" y="-436.2313" font-family="Times,serif" font-size="14.00" fill="#0000ff"> c</text>
        </g>
        <!-- tru&#45;&gt;truc -->
        <g id="edge47" class="edge">
            <title>tru&#45;&gt;truc</title>
            <path fill="none" stroke="#0000ff" d="M601.5424,-471.4723C617.5177,-452.8958 639.2774,-427.5931 655.1898,-409.0897"/>
            <polygon fill="#0000ff" stroke="#0000ff" points="657.9656,-411.2298 661.8323,-401.3657 652.6583,-406.6656 657.9656,-411.2298"/>
            <text text-anchor="middle" x="638.0942" y="-436.2313" font-family="Times,serif" font-size="14.00" fill="#000000"> c</text>
        </g>
        <!-- tru&#45;&gt;tr2 -->
        <g id="edge60" class="edge">
            <title>tru&#45;&gt;tr2</title>
            <path fill="none" stroke="#ffc0cb" d="M550.5144,-514.9925C520.6138,-533.8503 474.3748,-563.0126 441.6955,-583.6229"/>
            <polygon fill="#ffc0cb" stroke="#ffc0cb" points="432.8627,-589.1936 438.9205,-580.0528 437.0919,-586.5264 441.321,-583.8591 441.321,-583.8591 441.321,-583.8591 437.0919,-586.5264 443.7216,-587.6653 432.8627,-589.1936 432.8627,-589.1936"/>
            <text text-anchor="middle" x="521.2902" y="-547.8626" font-family="Times,serif" font-size="14.00" fill="#ff0000">0x11A</text>
        </g>
        <!-- truc&#45;&gt;tru -->
        <g id="edge59" class="edge">
            <title>truc&#45;&gt;tru</title>
            <path fill="none" stroke="#ffc0cb" d="M670.9731,-402.6462C666.3263,-416.3625 658.5213,-435.1464 647.2369,-448.8313 639.6641,-458.015 629.8999,-466.2538 620.1806,-473.1865"/>
            <polygon fill="#ffc0cb" stroke="#ffc0cb" points="611.7071,-478.9336 617.4572,-469.5962 615.8452,-476.127 619.9832,-473.3204 619.9832,-473.3204 619.9832,-473.3204 615.8452,-476.127 622.5091,-477.0446 611.7071,-478.9336 611.7071,-478.9336"/>
            <text text-anchor="middle" x="675.9052" y="-436.2313" font-family="Times,serif" font-size="14.00" fill="#ff0000">0x11B</text>
        </g>
        <!-- truck -->
        <g id="node22" class="node">
            <title>truck</title>
            <ellipse fill="none" stroke="#0000ff" cx="676.2369" cy="-284.4" rx="73.4745" ry="18"/>
            <text text-anchor="middle" x="676.2369" y="-280.2" font-family="Times,serif" font-size="14.00" fill="#0000ff">contentArray[4]</text>
        </g>
        <!-- truc&#45;&gt;truck -->
        <g id="edge23" class="edge">
            <title>truc&#45;&gt;truck</title>
            <path fill="none" stroke="#add8e6" d="M661.1247,-367.9416C654.3993,-359.4018 647.222,-348.4489 643.7369,-337.2 641.5272,-330.0678 641.0565,-327.369 643.7369,-320.4 645.1585,-316.7039 647.1547,-313.1507 649.4663,-309.8129"/>
            <polygon fill="#add8e6" stroke="#add8e6" points="655.7148,-302.0002 652.9831,-312.6204 652.5918,-305.9049 649.4689,-309.8097 649.4689,-309.8097 649.4689,-309.8097 652.5918,-305.9049 645.9546,-306.999 655.7148,-302.0002 655.7148,-302.0002"/>
            <text text-anchor="middle" x="648.4869" y="-324.6" font-family="Times,serif" font-size="14.00" fill="#0000ff"> k</text>
        </g>
        <!-- truc&#45;&gt;truck -->
        <g id="edge48" class="edge">
            <title>truc&#45;&gt;truck</title>
            <path fill="none" stroke="#0000ff" d="M676.2369,-366.2345C676.2369,-351.2603 676.2369,-329.8643 676.2369,-312.7055"/>
            <polygon fill="#0000ff" stroke="#0000ff" points="679.737,-312.6645 676.2369,-302.6646 672.737,-312.6646 679.737,-312.6645"/>
            <text text-anchor="middle" x="681.4869" y="-324.6" font-family="Times,serif" font-size="14.00" fill="#000000"> k</text>
        </g>
        <!-- truck&#45;&gt;truc -->
        <g id="edge58" class="edge">
            <title>truck&#45;&gt;truc</title>
            <path fill="none" stroke="#ffc0cb" d="M683.5061,-302.4275C685.4432,-308.0852 687.266,-314.4172 688.2369,-320.4 690.1842,-332.3997 688.3971,-345.6086 685.6614,-356.9103"/>
            <polygon fill="#ffc0cb" stroke="#ffc0cb" points="682.9623,-366.6639 681.2924,-355.8259 684.2958,-361.845 685.6294,-357.0261 685.6294,-357.0261 685.6294,-357.0261 684.2958,-361.845 689.9664,-358.2263 682.9623,-366.6639 682.9623,-366.6639"/>
            <text text-anchor="middle" x="695.5232" y="-324.6" font-family="Times,serif" font-size="14.00" fill="#ff0000">~4</text>
        </g>
        <!-- root2&#45;&gt;start -->
        <g id="edge57" class="edge">
            <title>root2&#45;&gt;start</title>
            <path fill="none" stroke="#ffc0cb" d="M357.5792,-835.5119C349.8381,-849.8782 340.3722,-867.4453 332.6656,-881.7478"/>
            <polygon fill="#ffc0cb" stroke="#ffc0cb" points="327.891,-890.6086 328.6731,-879.6706 330.2628,-886.2069 332.6346,-881.8052 332.6346,-881.8052 332.6346,-881.8052 330.2628,-886.2069 336.5961,-883.9399 327.891,-890.6086 327.891,-890.6086"/>
            <text text-anchor="middle" x="364.2902" y="-859.9251" font-family="Times,serif" font-size="14.00" fill="#ff0000">0x13A</text>
        </g>
        <!-- root2&#45;&gt;t2 -->
        <g id="edge35" class="edge">
            <title>root2&#45;&gt;t2</title>
            <path fill="none" stroke="#0000ff" d="M364.2537,-779.3628C362.2873,-768.2618 361.3673,-755.5211 363.8463,-744.0939 364.5092,-741.0382 365.4547,-737.9306 366.5615,-734.8864"/>
            <polygon fill="#0000ff" stroke="#0000ff" points="369.8507,-736.0934 370.4972,-725.5183 363.3971,-733.3821 369.8507,-736.0934"/>
            <text text-anchor="middle" x="366.9322" y="-748.2939" font-family="Times,serif" font-size="14.00" fill="#000000"> t</text>
        </g>
        <!-- t2&#45;&gt;root2 -->
        <g id="edge56" class="edge">
            <title>t2&#45;&gt;root2</title>
            <path fill="none" stroke="#ffc0cb" d="M378.7997,-726.0972C377.8593,-737.8779 376.5924,-753.7484 375.4225,-768.4033"/>
            <polygon fill="#ffc0cb" stroke="#ffc0cb" points="374.5939,-778.7835 370.904,-768.4571 374.9918,-773.7994 375.3897,-768.8152 375.3897,-768.8152 375.3897,-768.8152 374.9918,-773.7994 379.8754,-769.1734 374.5939,-778.7835 374.5939,-778.7835"/>
            <text text-anchor="middle" x="394.9052" y="-748.2939" font-family="Times,serif" font-size="14.00" fill="#ff0000">0x13B</text>
        </g>
        <!-- t2&#45;&gt;tr2 -->
        <g id="edge36" class="edge">
            <title>t2&#45;&gt;tr2</title>
            <path fill="none" stroke="#0000ff" d="M376.9714,-689.7532C375.7642,-679.4773 375.2844,-666.5113 378.0763,-655.2939 379.0487,-651.3869 380.4094,-647.4482 381.9998,-643.5998"/>
            <polygon fill="#0000ff" stroke="#0000ff" points="385.287,-644.8318 386.3356,-634.2889 378.9412,-641.8767 385.287,-644.8318"/>
            <text text-anchor="middle" x="381.3172" y="-659.4939" font-family="Times,serif" font-size="14.00" fill="#000000"> r</text>
        </g>
        <!-- tr2&#45;&gt;tre -->
        <g id="edge37" class="edge">
            <title>tr2&#45;&gt;tre</title>
            <path fill="none" stroke="#0000ff" d="M394.3252,-579.1086C390.6132,-567.9144 386.0477,-555.063 381.2369,-543.6626 379.7068,-540.0366 378.0202,-536.3025 376.2719,-532.597"/>
            <polygon fill="#0000ff" stroke="#0000ff" points="379.3778,-530.9808 371.8525,-523.523 373.0845,-534.0459 379.3778,-530.9808"/>
            <text text-anchor="middle" x="392.0942" y="-547.8626" font-family="Times,serif" font-size="14.00" fill="#000000"> e</text>
        </g>
        <!-- tr2&#45;&gt;tri -->
        <g id="edge38" class="edge">
            <title>tr2&#45;&gt;tri</title>
            <path fill="none" stroke="#0000ff" d="M428.3953,-585.4737C435.5741,-578.0764 442.8897,-569.4305 448.2369,-560.4626 452.9069,-552.6304 456.6772,-543.633 459.6635,-534.9006"/>
            <polygon fill="#0000ff" stroke="#0000ff" points="463.0435,-535.8196 462.7083,-525.2301 456.3666,-533.7173 463.0435,-535.8196"/>
            <text text-anchor="middle" x="459.9322" y="-547.8626" font-family="Times,serif" font-size="14.00" fill="#000000"> i</text>
        </g>
        <!-- tr2&#45;&gt;tra2 -->
        <g id="edge39" class="edge">
            <title>tr2&#45;&gt;tra2</title>
            <path fill="none" stroke="#0000ff" d="M370.3864,-593.0877C358.5096,-588.0561 344.9047,-582.6514 332.2369,-578.4626 301.0365,-568.1458 283.7876,-583.6708 260.5223,-560.4626 253.8249,-553.7816 249.75,-544.7649 247.3038,-535.603"/>
            <polygon fill="#0000ff" stroke="#0000ff" points="250.7083,-534.7836 245.2416,-525.7081 243.8556,-536.2118 250.7083,-534.7836"/>
            <text text-anchor="middle" x="266.0942" y="-547.8626" font-family="Times,serif" font-size="14.00" fill="#000000"> a</text>
        </g>
        <!-- tr2&#45;&gt;tru -->
        <g id="edge46" class="edge">
            <title>tr2&#45;&gt;tru</title>
            <path fill="none" stroke="#0000ff" d="M440.8715,-604.3719C473.582,-599.5098 520.4295,-587.9399 551.2369,-560.4626 558.9738,-553.5619 564.7664,-544.1924 569.054,-534.745"/>
            <polygon fill="#0000ff" stroke="#0000ff" points="572.3451,-535.9426 572.8562,-525.3601 565.8573,-533.3141 572.3451,-535.9426"/>
            <text text-anchor="middle" x="568.4869" y="-547.8626" font-family="Times,serif" font-size="14.00" fill="#000000"> u</text>
        </g>
        <!-- tr2&#45;&gt;t2 -->
        <g id="edge55" class="edge">
            <title>tr2&#45;&gt;t2</title>
            <path fill="none" stroke="#ffc0cb" d="M396.5462,-637.0309C393.433,-650.5957 389.7463,-666.6595 386.6663,-680.0797"/>
            <polygon fill="#ffc0cb" stroke="#ffc0cb" points="384.3488,-690.1773 382.1998,-679.4241 385.4673,-685.304 386.5858,-680.4307 386.5858,-680.4307 386.5858,-680.4307 385.4673,-685.304 390.9718,-681.4373 384.3488,-690.1773 384.3488,-690.1773"/>
            <text text-anchor="middle" x="409.9045" y="-659.4939" font-family="Times,serif" font-size="14.00" fill="#ff0000">0x0FE</text>
        </g>
    </g>
</svg>
